<?xml version="1.0" standalone="no"?><svg xmlns:xlink="http://www.w3.org/1999/xlink" xmlns="http://www.w3.org/2000/svg" viewBox="0 0 1080 432" preserveAspectRatio="xMaxYMax slice"><g transform="scale(1.244956772334294)"><rect x="0" y="0" width="867.5000000000001" height="347" fill="#ffffff"/><rect x="69.4" y="34.7" width="34.7" height="34.7" fill="#ffffff"/><rect x="104.10000000000001" y="34.7" width="34.7" height="34.7" fill="#ffffff"/><rect x="485.80000000000007" y="34.7" width="34.7" height="34.7" fill="#ffffff"/><path d="M 589.9 34.7 A 34.7 34.7 0 0 1  624.6 69.4 L 589.9 34.7 A 34.7 34.7 0 0 0 624.6 69.4" fill="#45fa1c"/><rect x="624.6" y="34.7" width="34.7" height="34.7" fill="#ffffff"/><rect x="104.10000000000001" y="69.4" width="34.7" height="34.7" fill="#ffffff"/><path d="M 121.45 69.4 A 17.35 17.35 0 0 1  138.8 86.75 L 121.45 69.4 A 17.35 17.35 0 0 0 138.8 86.75" fill="#a0eef2"/><path d="M 121.45 104.1 A 17.35 17.35 0 0 1  138.8 86.75 L 121.45 104.1 A 17.35 17.35 0 0 0 138.8 86.75" fill="#affd9d"/><rect x="242.90000000000003" y="69.4" width="34.7" height="34.7" fill="#ffffff"/><path d="M 260.25 86.75 A 17.35 17.35 0 0 1  277.6 104.1 L 260.25 86.75 A 17.35 17.35 0 0 0 277.6 104.1" fill="#1b1b1b"/><path d="M 277.6 104.10000000000001 A 34.7 34.7 0 0 1  312.3 69.4 L 277.6 104.10000000000001 A 34.7 34.7 0 0 0 312.3 69.4" fill="#7dfb61"/><path d="M 312.3 104.10000000000001 A 34.7 34.7 0 0 1  347 69.4 L 312.3 104.10000000000001 A 34.7 34.7 0 0 0 347 69.4" fill="#898989"/><rect x="520.5" y="69.4" width="34.7" height="34.7" fill="#ffffff"/><rect x="659.3000000000001" y="69.4" width="34.7" height="34.7" fill="#ffffff"/><path d="M 676.65 69.4 A 17.35 17.35 0 0 1  694 86.75 L 676.65 69.4 A 17.35 17.35 0 0 0 694 86.75" fill="#46fa1d"/><path d="M 659.3 104.1 A 17.35 17.35 0 0 1  676.65 86.75 L 659.3 104.1 A 17.35 17.35 0 0 0 676.65 86.75" fill="#efffec"/><rect x="173.5" y="104.10000000000001" width="34.7" height="34.7" fill="#ffffff"/><path d="M 190.85 104.1 A 17.35 17.35 0 0 1  208.2 121.44999999999999 L 190.85 104.1 A 17.35 17.35 0 0 0 208.2 121.44999999999999" fill="#515151"/><path d="M 416.4 104.1 A 34.7 34.7 0 0 1  451.09999999999997 138.8 L 416.4 104.1 A 34.7 34.7 0 0 0 451.09999999999997 138.8" fill="#bbf3f6"/><path d="M 485.8 138.8 A 34.7 34.7 0 0 1  520.5 104.1 L 485.8 138.8 A 34.7 34.7 0 0 0 520.5 104.1" fill="#d4d4d4"/><path d="M 520.5 138.8 A 34.7 34.7 0 0 1  555.2 104.1 L 520.5 138.8 A 34.7 34.7 0 0 0 555.2 104.1" fill="#999999"/><rect x="832.8000000000001" y="104.10000000000001" width="34.7" height="34.7" fill="#ffffff"/><path d="M 832.8 121.45 A 17.35 17.35 0 0 1  850.15 138.8 L 832.8 121.45 A 17.35 17.35 0 0 0 850.15 138.8" fill="#a9fd96"/><path d="M 850.15 138.8 A 17.35 17.35 0 0 1  867.5 121.45 L 850.15 138.8 A 17.35 17.35 0 0 0 867.5 121.45" fill="#bef3f6"/><path d="M 34.7 138.8 A 34.7 34.7 0 0 1  69.4 173.5 L 34.7 138.8 A 34.7 34.7 0 0 0 69.4 173.5" fill="#303030"/><rect x="138.8" y="138.8" width="34.7" height="34.7" fill="#ffffff"/><path d="M 156.15 156.15 A 17.35 17.35 0 0 1  173.5 138.8 L 156.15 156.15 A 17.35 17.35 0 0 0 173.5 138.8" fill="#a3eff3"/><rect x="277.6" y="138.8" width="34.7" height="34.7" fill="#ffffff"/><path d="M 294.95 156.15 A 17.35 17.35 0 0 1  312.3 138.8 L 294.95 156.15 A 17.35 17.35 0 0 0 312.3 138.8" fill="#181818"/><path d="M 416.4 138.8 A 34.7 34.7 0 0 1  451.09999999999997 173.5 L 416.4 138.8 A 34.7 34.7 0 0 0 451.09999999999997 173.5" fill="#ddfed6"/><rect x="451.1" y="138.8" width="34.7" height="34.7" fill="#ffffff"/><path d="M 451.1 156.15 A 17.35 17.35 0 0 1  468.45000000000005 138.8 L 451.1 156.15 A 17.35 17.35 0 0 0 468.45000000000005 138.8" fill="#46fa1d"/><path d="M 468.45 156.15 A 17.35 17.35 0 0 1  485.8 173.5 L 468.45 156.15 A 17.35 17.35 0 0 0 485.8 173.5" fill="#dedede"/><rect x="589.9000000000001" y="138.8" width="34.7" height="34.7" fill="#ffffff"/><path d="M 607.25 173.5 A 17.35 17.35 0 0 1  624.6 156.15 L 607.25 173.5 A 17.35 17.35 0 0 0 624.6 156.15" fill="#affd9d"/><path d="M 624.6 173.5 A 34.7 34.7 0 0 1  659.3000000000001 138.8 L 624.6 173.5 A 34.7 34.7 0 0 0 659.3000000000001 138.8" fill="#1f1f1f"/><path d="M 659.3 138.8 A 34.7 34.7 0 0 1  694 173.5 L 659.3 138.8 A 34.7 34.7 0 0 0 694 173.5" fill="#b7fda7"/><path d="M 694 138.8 A 34.7 34.7 0 0 1  728.7 173.5 L 694 138.8 A 34.7 34.7 0 0 0 728.7 173.5" fill="#cbcbcb"/><rect x="832.8000000000001" y="138.8" width="34.7" height="34.7" fill="#ffffff"/><path d="M 832.8 156.15 A 17.35 17.35 0 0 1  850.15 138.8 L 832.8 156.15 A 17.35 17.35 0 0 0 850.15 138.8" fill="#828282"/><path d="M 850.15 156.15 A 17.35 17.35 0 0 1  867.5 138.8 L 850.15 156.15 A 17.35 17.35 0 0 0 867.5 138.8" fill="#c6f5f7"/><path d="M 832.8 156.15 A 17.35 17.35 0 0 1  850.15 173.5 L 832.8 156.15 A 17.35 17.35 0 0 0 850.15 173.5" fill="#60e2e9"/><path d="M 104.1 208.2 A 34.7 34.7 0 0 1  138.8 173.5 L 104.1 208.2 A 34.7 34.7 0 0 0 138.8 173.5" fill="#f4fdfe"/><rect x="208.20000000000002" y="173.5" width="34.7" height="34.7" fill="#ffffff"/><path d="M 208.2 190.85 A 17.35 17.35 0 0 1  225.54999999999998 173.5 L 208.2 190.85 A 17.35 17.35 0 0 0 225.54999999999998 173.5" fill="#a3eff3"/><path d="M 225.55 190.85 A 17.35 17.35 0 0 1  242.9 173.5 L 225.55 190.85 A 17.35 17.35 0 0 0 242.9 173.5" fill="#7bfb5e"/><path d="M 208.2 190.85 A 17.35 17.35 0 0 1  225.54999999999998 208.2 L 208.2 190.85 A 17.35 17.35 0 0 0 225.54999999999998 208.2" fill="#5bfa37"/><path d="M 225.55 208.2 A 17.35 17.35 0 0 1  242.9 190.85 L 225.55 208.2 A 17.35 17.35 0 0 0 242.9 190.85" fill="#45dee6"/><rect x="312.3" y="173.5" width="34.7" height="34.7" fill="#ffffff"/><path d="M 312.3 208.2 A 17.35 17.35 0 0 1  329.65000000000003 190.85 L 312.3 208.2 A 17.35 17.35 0 0 0 329.65000000000003 190.85" fill="#63e3ea"/><path d="M 347 173.5 A 34.7 34.7 0 0 1  381.7 208.2 L 347 173.5 A 34.7 34.7 0 0 0 381.7 208.2" fill="#81e8ee"/><rect x="381.70000000000005" y="173.5" width="34.7" height="34.7" fill="#ffffff"/><path d="M 381.7 173.5 A 17.35 17.35 0 0 1  399.05 190.85 L 381.7 173.5 A 17.35 17.35 0 0 0 399.05 190.85" fill="#6e6e6e"/><path d="M 399.05 190.85 A 17.35 17.35 0 0 1  416.40000000000003 173.5 L 399.05 190.85 A 17.35 17.35 0 0 0 416.40000000000003 173.5" fill="#9afc83"/><path d="M 381.7 208.2 A 17.35 17.35 0 0 1  399.05 190.85 L 381.7 208.2 A 17.35 17.35 0 0 0 399.05 190.85" fill="#232323"/><path d="M 399.05 208.2 A 17.35 17.35 0 0 1  416.40000000000003 190.85 L 399.05 208.2 A 17.35 17.35 0 0 0 416.40000000000003 190.85" fill="#2e2e2e"/><path d="M 416.4 208.2 A 34.7 34.7 0 0 1  451.09999999999997 173.5 L 416.4 208.2 A 34.7 34.7 0 0 0 451.09999999999997 173.5" fill="#e4fafb"/><rect x="451.1" y="173.5" width="34.7" height="34.7" fill="#ffffff"/><path d="M 451.1 173.5 A 17.35 17.35 0 0 1  468.45000000000005 190.85 L 451.1 173.5 A 17.35 17.35 0 0 0 468.45000000000005 190.85" fill="#efefef"/><path d="M 451.1 208.2 A 17.35 17.35 0 0 1  468.45000000000005 190.85 L 451.1 208.2 A 17.35 17.35 0 0 0 468.45000000000005 190.85" fill="#d8fed0"/><rect x="485.80000000000007" y="173.5" width="34.7" height="34.7" fill="#ffffff"/><path d="M 503.15 190.85 A 17.35 17.35 0 0 1  520.5 173.5 L 503.15 190.85 A 17.35 17.35 0 0 0 520.5 173.5" fill="#82e9ee"/><path d="M 503.15 190.85 A 17.35 17.35 0 0 1  520.5 208.2 L 503.15 190.85 A 17.35 17.35 0 0 0 520.5 208.2" fill="#e6fee0"/><path d="M 520.5 208.2 A 34.7 34.7 0 0 1  555.2 173.5 L 520.5 208.2 A 34.7 34.7 0 0 0 555.2 173.5" fill="#81fb65"/><path d="M 589.9 208.2 A 34.7 34.7 0 0 1  624.6 173.5 L 589.9 208.2 A 34.7 34.7 0 0 0 624.6 173.5" fill="#48fa20"/><rect x="624.6" y="173.5" width="34.7" height="34.7" fill="#ffffff"/><path d="M 624.6 208.2 A 17.35 17.35 0 0 1  641.95 190.85 L 624.6 208.2 A 17.35 17.35 0 0 0 641.95 190.85" fill="#141414"/><rect x="659.3000000000001" y="173.5" width="34.7" height="34.7" fill="#ffffff"/><path d="M 659.3 190.85 A 17.35 17.35 0 0 1  676.65 173.5 L 659.3 190.85 A 17.35 17.35 0 0 0 676.65 173.5" fill="#a4eff3"/><path d="M 676.65 190.85 A 17.35 17.35 0 0 1  694 173.5 L 676.65 190.85 A 17.35 17.35 0 0 0 694 173.5" fill="#0a0a0a"/><path d="M 676.65 190.85 A 17.35 17.35 0 0 1  694 208.2 L 676.65 190.85 A 17.35 17.35 0 0 0 694 208.2" fill="#daf8fa"/><rect x="694" y="173.5" width="34.7" height="34.7" fill="#ffffff"/><path d="M 694 190.85 A 17.35 17.35 0 0 1  711.35 173.5 L 694 190.85 A 17.35 17.35 0 0 0 711.35 173.5" fill="#7f7f7f"/><path d="M 711.35 190.85 A 17.35 17.35 0 0 1  728.7 173.5 L 711.35 190.85 A 17.35 17.35 0 0 0 728.7 173.5" fill="#303030"/><path d="M 694 208.2 A 17.35 17.35 0 0 1  711.35 190.85 L 694 208.2 A 17.35 17.35 0 0 0 711.35 190.85" fill="#f3fdfd"/><path d="M 711.35 208.2 A 17.35 17.35 0 0 1  728.7 190.85 L 711.35 208.2 A 17.35 17.35 0 0 0 728.7 190.85" fill="#ddf9fa"/><path d="M 763.4 208.2 A 34.7 34.7 0 0 1  798.1 173.5 L 763.4 208.2 A 34.7 34.7 0 0 0 798.1 173.5" fill="#4afa23"/><path d="M 798.1 173.5 A 34.7 34.7 0 0 1  832.8000000000001 208.2 L 798.1 173.5 A 34.7 34.7 0 0 0 832.8000000000001 208.2" fill="#202020"/><rect x="0" y="208.20000000000002" width="34.7" height="34.7" fill="#ffffff"/><path d="M 17.35 208.2 A 17.35 17.35 0 0 1  34.7 225.54999999999998 L 17.35 208.2 A 17.35 17.35 0 0 0 34.7 225.54999999999998" fill="#2a2a2a"/><path d="M 17.35 242.9 A 17.35 17.35 0 0 1  34.7 225.55 L 17.35 242.9 A 17.35 17.35 0 0 0 34.7 225.55" fill="#717171"/><path d="M 34.7 242.89999999999998 A 34.7 34.7 0 0 1  69.4 208.2 L 34.7 242.89999999999998 A 34.7 34.7 0 0 0 69.4 208.2" fill="#acf0f4"/><path d="M 69.4 208.2 A 34.7 34.7 0 0 1  104.10000000000001 242.89999999999998 L 69.4 208.2 A 34.7 34.7 0 0 0 104.10000000000001 242.89999999999998" fill="#45fa1c"/><rect x="138.8" y="208.20000000000002" width="34.7" height="34.7" fill="#ffffff"/><path d="M 138.8 225.55 A 17.35 17.35 0 0 1  156.15 242.9 L 138.8 225.55 A 17.35 17.35 0 0 0 156.15 242.9" fill="#47fa1f"/><rect x="208.20000000000002" y="208.20000000000002" width="34.7" height="34.7" fill="#ffffff"/><path d="M 208.2 225.54999999999998 A 17.35 17.35 0 0 1  225.54999999999998 208.2 L 208.2 225.54999999999998 A 17.35 17.35 0 0 0 225.54999999999998 208.2" fill="#9b9b9b"/><path d="M 208.2 225.55 A 17.35 17.35 0 0 1  225.54999999999998 242.9 L 208.2 225.55 A 17.35 17.35 0 0 0 225.54999999999998 242.9" fill="#35dbe4"/><path d="M 277.6 208.2 A 34.7 34.7 0 0 1  312.3 242.89999999999998 L 277.6 208.2 A 34.7 34.7 0 0 0 312.3 242.89999999999998" fill="#bfbfbf"/><path d="M 347 242.89999999999998 A 34.7 34.7 0 0 1  381.7 208.2 L 347 242.89999999999998 A 34.7 34.7 0 0 0 381.7 208.2" fill="#a9eff3"/><rect x="416.40000000000003" y="208.20000000000002" width="34.7" height="34.7" fill="#ffffff"/><path d="M 416.4 208.2 A 17.35 17.35 0 0 1  433.75 225.54999999999998 L 416.4 208.2 A 17.35 17.35 0 0 0 433.75 225.54999999999998" fill="#aef1f4"/><path d="M 451.1 242.89999999999998 A 34.7 34.7 0 0 1  485.8 208.2 L 451.1 242.89999999999998 A 34.7 34.7 0 0 0 485.8 208.2" fill="#6f6f6f"/><path d="M 485.8 242.89999999999998 A 34.7 34.7 0 0 1  520.5 208.2 L 485.8 242.89999999999998 A 34.7 34.7 0 0 0 520.5 208.2" fill="#f5fff2"/><path d="M 520.5 242.89999999999998 A 34.7 34.7 0 0 1  555.2 208.2 L 520.5 242.89999999999998 A 34.7 34.7 0 0 0 555.2 208.2" fill="#34dbe3"/><rect x="555.2" y="208.20000000000002" width="34.7" height="34.7" fill="#ffffff"/><path d="M 572.55 208.2 A 17.35 17.35 0 0 1  589.9 225.54999999999998 L 572.55 208.2 A 17.35 17.35 0 0 0 589.9 225.54999999999998" fill="#cefec3"/><path d="M 572.55 225.55 A 17.35 17.35 0 0 1  589.9 242.9 L 572.55 225.55 A 17.35 17.35 0 0 0 589.9 242.9" fill="#dddddd"/><rect x="589.9000000000001" y="208.20000000000002" width="34.7" height="34.7" fill="#ffffff"/><path d="M 589.9 225.54999999999998 A 17.35 17.35 0 0 1  607.25 208.2 L 589.9 225.54999999999998 A 17.35 17.35 0 0 0 607.25 208.2" fill="#4adee6"/><path d="M 589.9 242.9 A 17.35 17.35 0 0 1  607.25 225.55 L 589.9 242.9 A 17.35 17.35 0 0 0 607.25 225.55" fill="#f3f3f3"/><path d="M 624.6 208.2 A 34.7 34.7 0 0 1  659.3000000000001 242.89999999999998 L 624.6 208.2 A 34.7 34.7 0 0 0 659.3000000000001 242.89999999999998" fill="#e3fedd"/><path d="M 694 242.89999999999998 A 34.7 34.7 0 0 1  728.7 208.2 L 694 242.89999999999998 A 34.7 34.7 0 0 0 728.7 208.2" fill="#89eaef"/><path d="M 728.7 208.2 A 34.7 34.7 0 0 1  763.4000000000001 242.89999999999998 L 728.7 208.2 A 34.7 34.7 0 0 0 763.4000000000001 242.89999999999998" fill="#f0fcfd"/><path d="M 798.1 242.89999999999998 A 34.7 34.7 0 0 1  832.8000000000001 208.2 L 798.1 242.89999999999998 A 34.7 34.7 0 0 0 832.8000000000001 208.2" fill="#93ecf0"/><path d="M 832.8 208.2 A 34.7 34.7 0 0 1  867.5 242.89999999999998 L 832.8 208.2 A 34.7 34.7 0 0 0 867.5 242.89999999999998" fill="#fdffff"/><rect x="0" y="242.90000000000003" width="34.7" height="34.7" fill="#ffffff"/><path d="M 0 242.9 A 17.35 17.35 0 0 1  17.35 260.25 L 0 242.9 A 17.35 17.35 0 0 0 17.35 260.25" fill="#9bedf1"/><path d="M 17.35 260.25 A 17.35 17.35 0 0 1  34.7 242.9 L 17.35 260.25 A 17.35 17.35 0 0 0 34.7 242.9" fill="#50e0e7"/><path d="M 0 260.25 A 17.35 17.35 0 0 1  17.35 277.6 L 0 260.25 A 17.35 17.35 0 0 0 17.35 277.6" fill="#d5f8f9"/><path d="M 17.35 277.6 A 17.35 17.35 0 0 1  34.7 260.25 L 17.35 277.6 A 17.35 17.35 0 0 0 34.7 260.25" fill="#f6f6f6"/><rect x="34.7" y="242.90000000000003" width="34.7" height="34.7" fill="#ffffff"/><path d="M 52.05 242.9 A 17.35 17.35 0 0 1  69.4 260.25 L 52.05 242.9 A 17.35 17.35 0 0 0 69.4 260.25" fill="#47fa1e"/><path d="M 34.7 277.6 A 17.35 17.35 0 0 1  52.050000000000004 260.25 L 34.7 277.6 A 17.35 17.35 0 0 0 52.050000000000004 260.25" fill="#616161"/><path d="M 52.05 277.6 A 17.35 17.35 0 0 1  69.4 260.25 L 52.05 277.6 A 17.35 17.35 0 0 0 69.4 260.25" fill="#dfdfdf"/><path d="M 69.4 242.9 A 34.7 34.7 0 0 1  104.10000000000001 277.6 L 69.4 242.9 A 34.7 34.7 0 0 0 104.10000000000001 277.6" fill="#797979"/><rect x="104.10000000000001" y="242.90000000000003" width="34.7" height="34.7" fill="#ffffff"/><path d="M 104.1 260.25 A 17.35 17.35 0 0 1  121.44999999999999 242.9 L 104.1 260.25 A 17.35 17.35 0 0 0 121.44999999999999 242.9" fill="#d3fec9"/><path d="M 121.45 260.25 A 17.35 17.35 0 0 1  138.8 242.9 L 121.45 260.25 A 17.35 17.35 0 0 0 138.8 242.9" fill="#f8fff6"/><path d="M 104.1 277.6 A 17.35 17.35 0 0 1  121.44999999999999 260.25 L 104.1 277.6 A 17.35 17.35 0 0 0 121.44999999999999 260.25" fill="#8aeaef"/><path d="M 121.45 277.6 A 17.35 17.35 0 0 1  138.8 260.25 L 121.45 277.6 A 17.35 17.35 0 0 0 138.8 260.25" fill="#d0fec6"/><rect x="138.8" y="242.90000000000003" width="34.7" height="34.7" fill="#ffffff"/><path d="M 138.8 242.9 A 17.35 17.35 0 0 1  156.15 260.25 L 138.8 242.9 A 17.35 17.35 0 0 0 156.15 260.25" fill="#181818"/><path d="M 156.15 242.9 A 17.35 17.35 0 0 1  173.5 260.25 L 156.15 242.9 A 17.35 17.35 0 0 0 173.5 260.25" fill="#c4c4c4"/><path d="M 138.8 260.25 A 17.35 17.35 0 0 1  156.15 277.6 L 138.8 260.25 A 17.35 17.35 0 0 0 156.15 277.6" fill="#b6f2f5"/><rect x="173.5" y="242.90000000000003" width="34.7" height="34.7" fill="#ffffff"/><path d="M 173.5 242.9 A 17.35 17.35 0 0 1  190.85 260.25 L 173.5 242.9 A 17.35 17.35 0 0 0 190.85 260.25" fill="#adf0f4"/><path d="M 190.85 260.25 A 17.35 17.35 0 0 1  208.2 242.9 L 190.85 260.25 A 17.35 17.35 0 0 0 208.2 242.9" fill="#f0f0f0"/><path d="M 173.5 260.25 A 17.35 17.35 0 0 1  190.85 277.6 L 173.5 260.25 A 17.35 17.35 0 0 0 190.85 277.6" fill="#7c7c7c"/><path d="M 190.85 277.6 A 17.35 17.35 0 0 1  208.2 260.25 L 190.85 277.6 A 17.35 17.35 0 0 0 208.2 260.25" fill="#e9fbfc"/><path d="M 208.2 242.9 A 34.7 34.7 0 0 1  242.89999999999998 277.6 L 208.2 242.9 A 34.7 34.7 0 0 0 242.89999999999998 277.6" fill="#282828"/><path d="M 242.9 242.9 A 34.7 34.7 0 0 1  277.6 277.6 L 242.9 242.9 A 34.7 34.7 0 0 0 277.6 277.6" fill="#939393"/><path d="M 312.3 242.9 A 34.7 34.7 0 0 1  347 277.6 L 312.3 242.9 A 34.7 34.7 0 0 0 347 277.6" fill="#39dbe4"/><rect x="381.70000000000005" y="242.90000000000003" width="34.7" height="34.7" fill="#ffffff"/><path d="M 381.7 242.9 A 17.35 17.35 0 0 1  399.05 260.25 L 381.7 242.9 A 17.35 17.35 0 0 0 399.05 260.25" fill="#61e3ea"/><path d="M 399.05 242.9 A 17.35 17.35 0 0 1  416.40000000000003 260.25 L 399.05 242.9 A 17.35 17.35 0 0 0 416.40000000000003 260.25" fill="#131313"/><path d="M 381.7 260.25 A 17.35 17.35 0 0 1  399.05 277.6 L 381.7 260.25 A 17.35 17.35 0 0 0 399.05 277.6" fill="#c3fdb6"/><path d="M 399.05 260.25 A 17.35 17.35 0 0 1  416.40000000000003 277.6 L 399.05 260.25 A 17.35 17.35 0 0 0 416.40000000000003 277.6" fill="#6efb4d"/><rect x="416.40000000000003" y="242.90000000000003" width="34.7" height="34.7" fill="#ffffff"/><path d="M 416.4 260.25 A 17.35 17.35 0 0 1  433.75 242.9 L 416.4 260.25 A 17.35 17.35 0 0 0 433.75 242.9" fill="#84e9ee"/><path d="M 433.75 260.25 A 17.35 17.35 0 0 1  451.1 242.9 L 433.75 260.25 A 17.35 17.35 0 0 0 451.1 242.9" fill="#010101"/><path d="M 416.4 260.25 A 17.35 17.35 0 0 1  433.75 277.6 L 416.4 260.25 A 17.35 17.35 0 0 0 433.75 277.6" fill="#59fa34"/><path d="M 433.75 277.6 A 17.35 17.35 0 0 1  451.1 260.25 L 433.75 277.6 A 17.35 17.35 0 0 0 451.1 260.25" fill="#b7f2f5"/><rect x="485.80000000000007" y="242.90000000000003" width="34.7" height="34.7" fill="#ffffff"/><path d="M 485.8 242.9 A 17.35 17.35 0 0 1  503.15000000000003 260.25 L 485.8 242.9 A 17.35 17.35 0 0 0 503.15000000000003 260.25" fill="#2d2d2d"/><path d="M 503.15 242.9 A 17.35 17.35 0 0 1  520.5 260.25 L 503.15 242.9 A 17.35 17.35 0 0 0 520.5 260.25" fill="#5bfa36"/><path d="M 503.15 277.6 A 17.35 17.35 0 0 1  520.5 260.25 L 503.15 277.6 A 17.35 17.35 0 0 0 520.5 260.25" fill="#1e1e1e"/><rect x="520.5" y="242.90000000000003" width="34.7" height="34.7" fill="#ffffff"/><path d="M 520.5 242.9 A 17.35 17.35 0 0 1  537.85 260.25 L 520.5 242.9 A 17.35 17.35 0 0 0 537.85 260.25" fill="#d7fece"/><path d="M 537.85 242.9 A 17.35 17.35 0 0 1  555.2 260.25 L 537.85 242.9 A 17.35 17.35 0 0 0 555.2 260.25" fill="#66fb44"/><path d="M 520.5 260.25 A 17.35 17.35 0 0 1  537.85 277.6 L 520.5 260.25 A 17.35 17.35 0 0 0 537.85 277.6" fill="#e1e1e1"/><path d="M 537.85 260.25 A 17.35 17.35 0 0 1  555.2 277.6 L 537.85 260.25 A 17.35 17.35 0 0 0 555.2 277.6" fill="#6be4eb"/><path d="M 624.6 277.6 A 34.7 34.7 0 0 1  659.3000000000001 242.9 L 624.6 277.6 A 34.7 34.7 0 0 0 659.3000000000001 242.9" fill="#e5fedf"/><rect x="659.3000000000001" y="242.90000000000003" width="34.7" height="34.7" fill="#ffffff"/><path d="M 676.65 242.9 A 17.35 17.35 0 0 1  694 260.25 L 676.65 242.9 A 17.35 17.35 0 0 0 694 260.25" fill="#242424"/><path d="M 659.3 260.25 A 17.35 17.35 0 0 1  676.65 277.6 L 659.3 260.25 A 17.35 17.35 0 0 0 676.65 277.6" fill="#4bfa24"/><path d="M 676.65 260.25 A 17.35 17.35 0 0 1  694 277.6 L 676.65 260.25 A 17.35 17.35 0 0 0 694 277.6" fill="#77fb58"/><path d="M 694 277.6 A 34.7 34.7 0 0 1  728.7 242.9 L 694 277.6 A 34.7 34.7 0 0 0 728.7 242.9" fill="#b3b3b3"/><rect x="798.1" y="242.90000000000003" width="34.7" height="34.7" fill="#ffffff"/><path d="M 798.1 242.9 A 17.35 17.35 0 0 1  815.45 260.25 L 798.1 242.9 A 17.35 17.35 0 0 0 815.45 260.25" fill="#87fc6d"/><path d="M 815.45 260.25 A 17.35 17.35 0 0 1  832.8000000000001 242.9 L 815.45 260.25 A 17.35 17.35 0 0 0 832.8000000000001 242.9" fill="#6f6f6f"/><path d="M 798.1 260.25 A 17.35 17.35 0 0 1  815.45 277.6 L 798.1 260.25 A 17.35 17.35 0 0 0 815.45 277.6" fill="#111111"/><path d="M 832.8 277.6 A 34.7 34.7 0 0 1  867.5 242.9 L 832.8 277.6 A 34.7 34.7 0 0 0 867.5 242.9" fill="#d9f8fa"/><path d="M 0 277.6 A 34.7 34.7 0 0 1  34.7 312.3 L 0 277.6 A 34.7 34.7 0 0 0 34.7 312.3" fill="#6ffb50"/><rect x="34.7" y="277.6" width="34.7" height="34.7" fill="#ffffff"/><path d="M 34.7 277.6 A 17.35 17.35 0 0 1  52.050000000000004 294.95000000000005 L 34.7 277.6 A 17.35 17.35 0 0 0 52.050000000000004 294.95000000000005" fill="#c6c6c6"/><path d="M 52.05 294.95000000000005 A 17.35 17.35 0 0 1  69.4 277.6 L 52.05 294.95000000000005 A 17.35 17.35 0 0 0 69.4 277.6" fill="#34dae3"/><path d="M 34.7 312.3 A 17.35 17.35 0 0 1  52.050000000000004 294.95 L 34.7 312.3 A 17.35 17.35 0 0 0 52.050000000000004 294.95" fill="#60e2e9"/><path d="M 52.05 294.95 A 17.35 17.35 0 0 1  69.4 312.3 L 52.05 294.95 A 17.35 17.35 0 0 0 69.4 312.3" fill="#98fc81"/><rect x="69.4" y="277.6" width="34.7" height="34.7" fill="#ffffff"/><path d="M 69.4 277.6 A 17.35 17.35 0 0 1  86.75 294.95000000000005 L 69.4 277.6 A 17.35 17.35 0 0 0 86.75 294.95000000000005" fill="#b5f2f5"/><path d="M 86.75 277.6 A 17.35 17.35 0 0 1  104.1 294.95000000000005 L 86.75 277.6 A 17.35 17.35 0 0 0 104.1 294.95000000000005" fill="#6afb49"/><path d="M 69.4 312.3 A 17.35 17.35 0 0 1  86.75 294.95 L 69.4 312.3 A 17.35 17.35 0 0 0 86.75 294.95" fill="#76fb58"/><path d="M 86.75 312.3 A 17.35 17.35 0 0 1  104.1 294.95 L 86.75 312.3 A 17.35 17.35 0 0 0 104.1 294.95" fill="#38dbe4"/><rect x="104.10000000000001" y="277.6" width="34.7" height="34.7" fill="#ffffff"/><path d="M 104.1 277.6 A 17.35 17.35 0 0 1  121.44999999999999 294.95000000000005 L 104.1 277.6 A 17.35 17.35 0 0 0 121.44999999999999 294.95000000000005" fill="#050505"/><path d="M 121.45 277.6 A 17.35 17.35 0 0 1  138.8 294.95000000000005 L 121.45 277.6 A 17.35 17.35 0 0 0 138.8 294.95000000000005" fill="#75e6ec"/><path d="M 121.45 294.95 A 17.35 17.35 0 0 1  138.8 312.3 L 121.45 294.95 A 17.35 17.35 0 0 0 138.8 312.3" fill="#575757"/><rect x="138.8" y="277.6" width="34.7" height="34.7" fill="#ffffff"/><path d="M 138.8 277.6 A 17.35 17.35 0 0 1  156.15 294.95000000000005 L 138.8 277.6 A 17.35 17.35 0 0 0 156.15 294.95000000000005" fill="#fafefe"/><path d="M 156.15 277.6 A 17.35 17.35 0 0 1  173.5 294.95000000000005 L 156.15 277.6 A 17.35 17.35 0 0 0 173.5 294.95000000000005" fill="#666666"/><path d="M 138.8 312.3 A 17.35 17.35 0 0 1  156.15 294.95 L 138.8 312.3 A 17.35 17.35 0 0 0 156.15 294.95" fill="#f0f0f0"/><path d="M 156.15 294.95 A 17.35 17.35 0 0 1  173.5 312.3 L 156.15 294.95 A 17.35 17.35 0 0 0 173.5 312.3" fill="#98fc81"/><path d="M 173.5 277.6 A 34.7 34.7 0 0 1  208.2 312.3 L 173.5 277.6 A 34.7 34.7 0 0 0 208.2 312.3" fill="#8bfc71"/><path d="M 208.2 277.6 A 34.7 34.7 0 0 1  242.89999999999998 312.3 L 208.2 277.6 A 34.7 34.7 0 0 0 242.89999999999998 312.3" fill="#87fc6d"/><path d="M 242.9 312.3 A 34.7 34.7 0 0 1  277.6 277.6 L 242.9 312.3 A 34.7 34.7 0 0 0 277.6 277.6" fill="#bef3f6"/><rect x="277.6" y="277.6" width="34.7" height="34.7" fill="#ffffff"/><path d="M 277.6 277.6 A 17.35 17.35 0 0 1  294.95000000000005 294.95000000000005 L 277.6 277.6 A 17.35 17.35 0 0 0 294.95000000000005 294.95000000000005" fill="#8b8b8b"/><path d="M 294.95 277.6 A 17.35 17.35 0 0 1  312.3 294.95000000000005 L 294.95 277.6 A 17.35 17.35 0 0 0 312.3 294.95000000000005" fill="#fdfffd"/><path d="M 277.6 312.3 A 17.35 17.35 0 0 1  294.95000000000005 294.95 L 277.6 312.3 A 17.35 17.35 0 0 0 294.95000000000005 294.95" fill="#41dde5"/><path d="M 294.95 312.3 A 17.35 17.35 0 0 1  312.3 294.95 L 294.95 312.3 A 17.35 17.35 0 0 0 312.3 294.95" fill="#fbfefe"/><path d="M 312.3 312.3 A 34.7 34.7 0 0 1  347 277.6 L 312.3 312.3 A 34.7 34.7 0 0 0 347 277.6" fill="#202020"/><rect x="347" y="277.6" width="34.7" height="34.7" fill="#ffffff"/><path d="M 364.35 294.95000000000005 A 17.35 17.35 0 0 1  381.70000000000005 277.6 L 364.35 294.95000000000005 A 17.35 17.35 0 0 0 381.70000000000005 277.6" fill="#59fa35"/><path d="M 347 294.95 A 17.35 17.35 0 0 1  364.35 312.3 L 347 294.95 A 17.35 17.35 0 0 0 364.35 312.3" fill="#151515"/><path d="M 364.35 294.95 A 17.35 17.35 0 0 1  381.70000000000005 312.3 L 364.35 294.95 A 17.35 17.35 0 0 0 381.70000000000005 312.3" fill="#dcfed5"/><rect x="381.70000000000005" y="277.6" width="34.7" height="34.7" fill="#ffffff"/><path d="M 381.7 277.6 A 17.35 17.35 0 0 1  399.05 294.95000000000005 L 381.7 277.6 A 17.35 17.35 0 0 0 399.05 294.95000000000005" fill="#494949"/><path d="M 399.05 277.6 A 17.35 17.35 0 0 1  416.40000000000003 294.95000000000005 L 399.05 277.6 A 17.35 17.35 0 0 0 416.40000000000003 294.95000000000005" fill="#dffed8"/><path d="M 381.7 312.3 A 17.35 17.35 0 0 1  399.05 294.95 L 381.7 312.3 A 17.35 17.35 0 0 0 399.05 294.95" fill="#f1fcfd"/><path d="M 399.05 312.3 A 17.35 17.35 0 0 1  416.40000000000003 294.95 L 399.05 312.3 A 17.35 17.35 0 0 0 416.40000000000003 294.95" fill="#3c3c3c"/><rect x="416.40000000000003" y="277.6" width="34.7" height="34.7" fill="#ffffff"/><path d="M 416.4 277.6 A 17.35 17.35 0 0 1  433.75 294.95000000000005 L 416.4 277.6 A 17.35 17.35 0 0 0 433.75 294.95000000000005" fill="#daf8fa"/><path d="M 433.75 294.95000000000005 A 17.35 17.35 0 0 1  451.1 277.6 L 433.75 294.95000000000005 A 17.35 17.35 0 0 0 451.1 277.6" fill="#58e1e8"/><path d="M 416.4 294.95 A 17.35 17.35 0 0 1  433.75 312.3 L 416.4 294.95 A 17.35 17.35 0 0 0 433.75 312.3" fill="#8deaef"/><path d="M 433.75 312.3 A 17.35 17.35 0 0 1  451.1 294.95 L 433.75 312.3 A 17.35 17.35 0 0 0 451.1 294.95" fill="#060606"/><rect x="451.1" y="277.6" width="34.7" height="34.7" fill="#ffffff"/><path d="M 451.1 294.95000000000005 A 17.35 17.35 0 0 1  468.45000000000005 277.6 L 451.1 294.95000000000005 A 17.35 17.35 0 0 0 468.45000000000005 277.6" fill="#363636"/><path d="M 468.45 277.6 A 17.35 17.35 0 0 1  485.8 294.95000000000005 L 468.45 277.6 A 17.35 17.35 0 0 0 485.8 294.95000000000005" fill="#0b0b0b"/><path d="M 451.1 312.3 A 17.35 17.35 0 0 1  468.45000000000005 294.95 L 451.1 312.3 A 17.35 17.35 0 0 0 468.45000000000005 294.95" fill="#46dee6"/><path d="M 468.45 312.3 A 17.35 17.35 0 0 1  485.8 294.95 L 468.45 312.3 A 17.35 17.35 0 0 0 485.8 294.95" fill="#55fa2f"/><rect x="485.80000000000007" y="277.6" width="34.7" height="34.7" fill="#ffffff"/><path d="M 485.8 277.6 A 17.35 17.35 0 0 1  503.15000000000003 294.95000000000005 L 485.8 277.6 A 17.35 17.35 0 0 0 503.15000000000003 294.95000000000005" fill="#64e3ea"/><path d="M 503.15 294.95000000000005 A 17.35 17.35 0 0 1  520.5 277.6 L 503.15 294.95000000000005 A 17.35 17.35 0 0 0 520.5 277.6" fill="#f6fdfe"/><path d="M 485.8 312.3 A 17.35 17.35 0 0 1  503.15000000000003 294.95 L 485.8 312.3 A 17.35 17.35 0 0 0 503.15000000000003 294.95" fill="#d8d8d8"/><path d="M 503.15 294.95 A 17.35 17.35 0 0 1  520.5 312.3 L 503.15 294.95 A 17.35 17.35 0 0 0 520.5 312.3" fill="#f7fefe"/><rect x="520.5" y="277.6" width="34.7" height="34.7" fill="#ffffff"/><path d="M 520.5 294.95000000000005 A 17.35 17.35 0 0 1  537.85 277.6 L 520.5 294.95000000000005 A 17.35 17.35 0 0 0 537.85 277.6" fill="#a2eef2"/><path d="M 537.85 294.95000000000005 A 17.35 17.35 0 0 1  555.2 277.6 L 537.85 294.95000000000005 A 17.35 17.35 0 0 0 555.2 277.6" fill="#3a3a3a"/><path d="M 520.5 312.3 A 17.35 17.35 0 0 1  537.85 294.95 L 520.5 312.3 A 17.35 17.35 0 0 0 537.85 294.95" fill="#ddf9fa"/><path d="M 537.85 294.95 A 17.35 17.35 0 0 1  555.2 312.3 L 537.85 294.95 A 17.35 17.35 0 0 0 555.2 312.3" fill="#b9b9b9"/><path d="M 555.2 277.6 A 34.7 34.7 0 0 1  589.9000000000001 312.3 L 555.2 277.6 A 34.7 34.7 0 0 0 589.9000000000001 312.3" fill="#d0f6f9"/><rect x="589.9000000000001" y="277.6" width="34.7" height="34.7" fill="#ffffff"/><path d="M 589.9 294.95000000000005 A 17.35 17.35 0 0 1  607.25 277.6 L 589.9 294.95000000000005 A 17.35 17.35 0 0 0 607.25 277.6" fill="#e7e7e7"/><path d="M 607.25 277.6 A 17.35 17.35 0 0 1  624.6 294.95000000000005 L 607.25 277.6 A 17.35 17.35 0 0 0 624.6 294.95000000000005" fill="#70e5ec"/><path d="M 589.9 312.3 A 17.35 17.35 0 0 1  607.25 294.95 L 589.9 312.3 A 17.35 17.35 0 0 0 607.25 294.95" fill="#88eaef"/><path d="M 607.25 312.3 A 17.35 17.35 0 0 1  624.6 294.95 L 607.25 312.3 A 17.35 17.35 0 0 0 624.6 294.95" fill="#3f3f3f"/><path d="M 624.6 312.3 A 34.7 34.7 0 0 1  659.3000000000001 277.6 L 624.6 312.3 A 34.7 34.7 0 0 0 659.3000000000001 277.6" fill="#d5fecc"/><path d="M 659.3 312.3 A 34.7 34.7 0 0 1  694 277.6 L 659.3 312.3 A 34.7 34.7 0 0 0 694 277.6" fill="#202020"/><path d="M 694 277.6 A 34.7 34.7 0 0 1  728.7 312.3 L 694 277.6 A 34.7 34.7 0 0 0 728.7 312.3" fill="#74fb55"/><path d="M 728.7 277.6 A 34.7 34.7 0 0 1  763.4000000000001 312.3 L 728.7 277.6 A 34.7 34.7 0 0 0 763.4000000000001 312.3" fill="#d1fec7"/><path d="M 763.4 277.6 A 34.7 34.7 0 0 1  798.1 312.3 L 763.4 277.6 A 34.7 34.7 0 0 0 798.1 312.3" fill="#f4fdfe"/><rect x="798.1" y="277.6" width="34.7" height="34.7" fill="#ffffff"/><path d="M 798.1 277.6 A 17.35 17.35 0 0 1  815.45 294.95000000000005 L 798.1 277.6 A 17.35 17.35 0 0 0 815.45 294.95000000000005" fill="#a6fc92"/><path d="M 815.45 277.6 A 17.35 17.35 0 0 1  832.8000000000001 294.95000000000005 L 815.45 277.6 A 17.35 17.35 0 0 0 832.8000000000001 294.95000000000005" fill="#d4f7f9"/><path d="M 798.1 312.3 A 17.35 17.35 0 0 1  815.45 294.95 L 798.1 312.3 A 17.35 17.35 0 0 0 815.45 294.95" fill="#e7e7e7"/><path d="M 815.45 312.3 A 17.35 17.35 0 0 1  832.8000000000001 294.95 L 815.45 312.3 A 17.35 17.35 0 0 0 832.8000000000001 294.95" fill="#404040"/><path d="M 0 312.3 A 34.7 34.7 0 0 1  34.7 347 L 0 312.3 A 34.7 34.7 0 0 0 34.7 347" fill="#9dfc88"/><path d="M 34.7 347 A 34.7 34.7 0 0 1  69.4 312.3 L 34.7 347 A 34.7 34.7 0 0 0 69.4 312.3" fill="#979797"/><path d="M 69.4 312.3 A 34.7 34.7 0 0 1  104.10000000000001 347 L 69.4 312.3 A 34.7 34.7 0 0 0 104.10000000000001 347" fill="#9e9e9e"/><rect x="104.10000000000001" y="312.3" width="34.7" height="34.7" fill="#ffffff"/><path d="M 104.1 329.65000000000003 A 17.35 17.35 0 0 1  121.44999999999999 312.3 L 104.1 329.65000000000003 A 17.35 17.35 0 0 0 121.44999999999999 312.3" fill="#f1fcfd"/><path d="M 121.45 312.3 A 17.35 17.35 0 0 1  138.8 329.65000000000003 L 121.45 312.3 A 17.35 17.35 0 0 0 138.8 329.65000000000003" fill="#64e3ea"/><path d="M 104.1 329.65 A 17.35 17.35 0 0 1  121.44999999999999 347 L 104.1 329.65 A 17.35 17.35 0 0 0 121.44999999999999 347" fill="#b5f2f5"/><path d="M 121.45 347 A 17.35 17.35 0 0 1  138.8 329.65 L 121.45 347 A 17.35 17.35 0 0 0 138.8 329.65" fill="#56e1e8"/><path d="M 138.8 312.3 A 34.7 34.7 0 0 1  173.5 347 L 138.8 312.3 A 34.7 34.7 0 0 0 173.5 347" fill="#3ddce5"/><rect x="173.5" y="312.3" width="34.7" height="34.7" fill="#ffffff"/><path d="M 173.5 312.3 A 17.35 17.35 0 0 1  190.85 329.65000000000003 L 173.5 312.3 A 17.35 17.35 0 0 0 190.85 329.65000000000003" fill="#fbfefe"/><path d="M 190.85 312.3 A 17.35 17.35 0 0 1  208.2 329.65000000000003 L 190.85 312.3 A 17.35 17.35 0 0 0 208.2 329.65000000000003" fill="#cdfec2"/><path d="M 173.5 329.65 A 17.35 17.35 0 0 1  190.85 347 L 173.5 329.65 A 17.35 17.35 0 0 0 190.85 347" fill="#49dee6"/><path d="M 190.85 347 A 17.35 17.35 0 0 1  208.2 329.65 L 190.85 347 A 17.35 17.35 0 0 0 208.2 329.65" fill="#4dfa26"/><path d="M 208.2 312.3 A 34.7 34.7 0 0 1  242.89999999999998 347 L 208.2 312.3 A 34.7 34.7 0 0 0 242.89999999999998 347" fill="#65e3ea"/><rect x="242.90000000000003" y="312.3" width="34.7" height="34.7" fill="#ffffff"/><path d="M 242.9 312.3 A 17.35 17.35 0 0 1  260.25 329.65000000000003 L 242.9 312.3 A 17.35 17.35 0 0 0 260.25 329.65000000000003" fill="#9dedf2"/><path d="M 260.25 329.65000000000003 A 17.35 17.35 0 0 1  277.6 312.3 L 260.25 329.65000000000003 A 17.35 17.35 0 0 0 277.6 312.3" fill="#4ddfe7"/><path d="M 242.9 329.65 A 17.35 17.35 0 0 1  260.25 347 L 242.9 329.65 A 17.35 17.35 0 0 0 260.25 347" fill="#575757"/><path d="M 260.25 347 A 17.35 17.35 0 0 1  277.6 329.65 L 260.25 347 A 17.35 17.35 0 0 0 277.6 329.65" fill="#464646"/><path d="M 277.6 347 A 34.7 34.7 0 0 1  312.3 312.3 L 277.6 347 A 34.7 34.7 0 0 0 312.3 312.3" fill="#51fa2a"/><path d="M 312.3 347 A 34.7 34.7 0 0 1  347 312.3 L 312.3 347 A 34.7 34.7 0 0 0 347 312.3" fill="#9eeef2"/><path d="M 347 312.3 A 34.7 34.7 0 0 1  381.7 347 L 347 312.3 A 34.7 34.7 0 0 0 381.7 347" fill="#2ff902"/><path d="M 381.7 347 A 34.7 34.7 0 0 1  416.4 312.3 L 381.7 347 A 34.7 34.7 0 0 0 416.4 312.3" fill="#cef6f8"/><rect x="416.40000000000003" y="312.3" width="34.7" height="34.7" fill="#ffffff"/><path d="M 416.4 312.3 A 17.35 17.35 0 0 1  433.75 329.65000000000003 L 416.4 312.3 A 17.35 17.35 0 0 0 433.75 329.65000000000003" fill="#81fb65"/><path d="M 433.75 329.65000000000003 A 17.35 17.35 0 0 1  451.1 312.3 L 433.75 329.65000000000003 A 17.35 17.35 0 0 0 451.1 312.3" fill="#7afb5c"/><path d="M 416.4 347 A 17.35 17.35 0 0 1  433.75 329.65 L 416.4 347 A 17.35 17.35 0 0 0 433.75 329.65" fill="#88fc6d"/><path d="M 433.75 329.65 A 17.35 17.35 0 0 1  451.1 347 L 433.75 329.65 A 17.35 17.35 0 0 0 451.1 347" fill="#3bdce4"/><path d="M 451.1 347 A 34.7 34.7 0 0 1  485.8 312.3 L 451.1 347 A 34.7 34.7 0 0 0 485.8 312.3" fill="#ecfee8"/><rect x="485.80000000000007" y="312.3" width="34.7" height="34.7" fill="#ffffff"/><path d="M 485.8 329.65000000000003 A 17.35 17.35 0 0 1  503.15000000000003 312.3 L 485.8 329.65000000000003 A 17.35 17.35 0 0 0 503.15000000000003 312.3" fill="#5be2e9"/><path d="M 503.15 329.65000000000003 A 17.35 17.35 0 0 1  520.5 312.3 L 503.15 329.65000000000003 A 17.35 17.35 0 0 0 520.5 312.3" fill="#b6fda6"/><path d="M 485.8 329.65 A 17.35 17.35 0 0 1  503.15000000000003 347 L 485.8 329.65 A 17.35 17.35 0 0 0 503.15000000000003 347" fill="#5fe2e9"/><path d="M 503.15 329.65 A 17.35 17.35 0 0 1  520.5 347 L 503.15 329.65 A 17.35 17.35 0 0 0 520.5 347" fill="#525252"/><rect x="520.5" y="312.3" width="34.7" height="34.7" fill="#ffffff"/><path d="M 520.5 312.3 A 17.35 17.35 0 0 1  537.85 329.65000000000003 L 520.5 312.3 A 17.35 17.35 0 0 0 537.85 329.65000000000003" fill="#8febf0"/><path d="M 537.85 329.65000000000003 A 17.35 17.35 0 0 1  555.2 312.3 L 537.85 329.65000000000003 A 17.35 17.35 0 0 0 555.2 312.3" fill="#080808"/><path d="M 520.5 329.65 A 17.35 17.35 0 0 1  537.85 347 L 520.5 329.65 A 17.35 17.35 0 0 0 537.85 347" fill="#53e0e8"/><path d="M 537.85 347 A 17.35 17.35 0 0 1  555.2 329.65 L 537.85 347 A 17.35 17.35 0 0 0 555.2 329.65" fill="#a2a2a2"/><rect x="555.2" y="312.3" width="34.7" height="34.7" fill="#ffffff"/><path d="M 555.2 329.65000000000003 A 17.35 17.35 0 0 1  572.5500000000001 312.3 L 555.2 329.65000000000003 A 17.35 17.35 0 0 0 572.5500000000001 312.3" fill="#e2e2e2"/><path d="M 572.55 312.3 A 17.35 17.35 0 0 1  589.9 329.65000000000003 L 572.55 312.3 A 17.35 17.35 0 0 0 589.9 329.65000000000003" fill="#dfdfdf"/><path d="M 555.2 347 A 17.35 17.35 0 0 1  572.5500000000001 329.65 L 555.2 347 A 17.35 17.35 0 0 0 572.5500000000001 329.65" fill="#86e9ef"/><path d="M 572.55 329.65 A 17.35 17.35 0 0 1  589.9 347 L 572.55 329.65 A 17.35 17.35 0 0 0 589.9 347" fill="#70fb51"/><rect x="589.9000000000001" y="312.3" width="34.7" height="34.7" fill="#ffffff"/><path d="M 589.9 312.3 A 17.35 17.35 0 0 1  607.25 329.65000000000003 L 589.9 312.3 A 17.35 17.35 0 0 0 607.25 329.65000000000003" fill="#f7fff5"/><path d="M 607.25 312.3 A 17.35 17.35 0 0 1  624.6 329.65000000000003 L 607.25 312.3 A 17.35 17.35 0 0 0 624.6 329.65000000000003" fill="#bef3f6"/><path d="M 589.9 329.65 A 17.35 17.35 0 0 1  607.25 347 L 589.9 329.65 A 17.35 17.35 0 0 0 607.25 347" fill="#868686"/><path d="M 607.25 347 A 17.35 17.35 0 0 1  624.6 329.65 L 607.25 347 A 17.35 17.35 0 0 0 624.6 329.65" fill="#636363"/><path d="M 624.6 347 A 34.7 34.7 0 0 1  659.3000000000001 312.3 L 624.6 347 A 34.7 34.7 0 0 0 659.3000000000001 312.3" fill="#0b0b0b"/><rect x="659.3000000000001" y="312.3" width="34.7" height="34.7" fill="#ffffff"/><path d="M 659.3 329.65000000000003 A 17.35 17.35 0 0 1  676.65 312.3 L 659.3 329.65000000000003 A 17.35 17.35 0 0 0 676.65 312.3" fill="#fcfeff"/><path d="M 676.65 329.65000000000003 A 17.35 17.35 0 0 1  694 312.3 L 676.65 329.65000000000003 A 17.35 17.35 0 0 0 694 312.3" fill="#57e1e8"/><path d="M 659.3 347 A 17.35 17.35 0 0 1  676.65 329.65 L 659.3 347 A 17.35 17.35 0 0 0 676.65 329.65" fill="#8beaef"/><path d="M 676.65 329.65 A 17.35 17.35 0 0 1  694 347 L 676.65 329.65 A 17.35 17.35 0 0 0 694 347" fill="#a9fd96"/><path d="M 694 347 A 34.7 34.7 0 0 1  728.7 312.3 L 694 347 A 34.7 34.7 0 0 0 728.7 312.3" fill="#68e4ea"/><path d="M 728.7 347 A 34.7 34.7 0 0 1  763.4000000000001 312.3 L 728.7 347 A 34.7 34.7 0 0 0 763.4000000000001 312.3" fill="#66fb44"/><path d="M 763.4 312.3 A 34.7 34.7 0 0 1  798.1 347 L 763.4 312.3 A 34.7 34.7 0 0 0 798.1 347" fill="#98edf1"/><rect x="798.1" y="312.3" width="34.7" height="34.7" fill="#ffffff"/><path d="M 798.1 329.65000000000003 A 17.35 17.35 0 0 1  815.45 312.3 L 798.1 329.65000000000003 A 17.35 17.35 0 0 0 815.45 312.3" fill="#eafbfc"/><path d="M 815.45 329.65000000000003 A 17.35 17.35 0 0 1  832.8000000000001 312.3 L 815.45 329.65000000000003 A 17.35 17.35 0 0 0 832.8000000000001 312.3" fill="#acfd9a"/><path d="M 798.1 347 A 17.35 17.35 0 0 1  815.45 329.65 L 798.1 347 A 17.35 17.35 0 0 0 815.45 329.65" fill="#dff9fb"/><path d="M 815.45 329.65 A 17.35 17.35 0 0 1  832.8000000000001 347 L 815.45 329.65 A 17.35 17.35 0 0 0 832.8000000000001 347" fill="#fdffff"/><path d="M 832.8 312.3 A 34.7 34.7 0 0 1  867.5 347 L 832.8 312.3 A 34.7 34.7 0 0 0 867.5 347" fill="#51fa2b"/></g></svg>